#N canvas 98 68 1414 827 12;
#X obj 63 36 tgl 19 0 empty empty empty 0 -10 0 12 #fcfcfc #000000 #000000 0 1;
#X obj 292 729 netsend -u -b;
#X obj 259 553 noteout;
#X obj 398 639 oscparse;
#X listbox 398 665 20 0 0 0 - - - 0;
#X obj 203 587 oscformat -f f x;
#X msg 346 698 connect localhost 12345;
#X obj 230 513 makenote 60 5000;
#X obj 393 587 oscformat -f f y;
#X text 97 23 MEDIA>MIDI>IACDRIVERS as input and output command-E to edit patch toggle on! connect!;
#X obj 40 211 sel 0 1 2 3 4 5 6 7 8 9 10 11 12 13 14 15;
#X obj 58 103 random 17;
#X obj 410 212 sel 0 1 2 3 4 5 6 7 8 9 10 11 12 13 14 15;
#X obj 409 98 random 17;
#X msg 29 255 30;
#X msg 52 280 31;
#X msg 77 313 32;
#X msg 105 334 33;
#X msg 115 250 34;
#X msg 139 278 35;
#X msg 152 305 36;
#X msg 171 332 37;
#X msg 189 246 38;
#X msg 201 272 39;
#X msg 213 298 40;
#X msg 227 326 41;
#X msg 255 242 42;
#X msg 271 268 43;
#X msg 287 297 44;
#X msg 305 322 45;
#X msg 397 256 25;
#X msg 420 281 95;
#X msg 445 314 120;
#X msg 473 335 40;
#X msg 483 251 128;
#X msg 507 279 128;
#X msg 520 306 50;
#X msg 539 333 50;
#X msg 557 247 75;
#X msg 569 273 75;
#X msg 581 299 128;
#X msg 595 327 128;
#X msg 623 243 50;
#X msg 639 269 30;
#X msg 655 298 75;
#X msg 673 323 80;
#X obj 62 74 metro 350;
#X msg 817 206 read -resize \$1 array1;
#X obj 817 256 soundfiler;
#X floatatom 817 298 5 0 0 0 - - - 0;
#X obj 817 336 phasor~;
#X obj 817 371 *~;
#X obj 817 407 tabread4~ array1;
#X msg 859 498 \$1 20;
#N canvas 0 22 450 278 (subpatch) 0;
#X array array1 3.97241e+06 float 4;
#X coords 0 1 3.97241e+06 -1 200 140 1;
#X restore 1193 86 graph;
#X obj 817 554 *~;
#X obj 859 528 line~;
#X floatatom 859 468 5 0 0 0 - - - 0;
#X obj 817 582 hip~ 5;
#X obj 817 617 dac~;
#X obj 1026 302 output~;
#X obj 973 304 env~;
#X floatatom 973 336 5 0 0 0 - - - 0;
#X obj 1158 302 env~;
#X floatatom 1158 334 5 0 0 0 - - - 0;
#X msg 997 147 start;
#X msg 1055 157 stop;
#X obj 992 254 readsf~, f 37;
#X connect 0 0 46 0;
#X connect 3 0 4 0;
#X connect 5 0 1 0;
#X connect 6 0 1 0;
#X connect 7 0 2 0;
#X connect 7 0 5 0;
#X connect 7 1 2 1;
#X connect 7 1 8 0;
#X connect 8 0 1 0;
#X connect 8 0 3 0;
#X connect 10 0 14 0;
#X connect 10 1 15 0;
#X connect 10 2 16 0;
#X connect 10 3 17 0;
#X connect 10 4 18 0;
#X connect 10 5 19 0;
#X connect 10 6 20 0;
#X connect 10 7 21 0;
#X connect 10 8 22 0;
#X connect 10 9 23 0;
#X connect 10 10 24 0;
#X connect 10 11 25 0;
#X connect 10 12 26 0;
#X connect 10 13 27 0;
#X connect 10 14 28 0;
#X connect 10 15 29 0;
#X connect 11 0 10 0;
#X connect 12 0 30 0;
#X connect 12 1 31 0;
#X connect 12 2 32 0;
#X connect 12 3 33 0;
#X connect 12 4 34 0;
#X connect 12 5 35 0;
#X connect 12 6 36 0;
#X connect 12 7 37 0;
#X connect 12 8 38 0;
#X connect 12 9 39 0;
#X connect 12 10 40 0;
#X connect 12 11 41 0;
#X connect 12 12 42 0;
#X connect 12 13 43 0;
#X connect 12 14 44 0;
#X connect 12 15 45 0;
#X connect 13 0 12 0;
#X connect 14 0 7 0;
#X connect 15 0 7 0;
#X connect 16 0 7 0;
#X connect 17 0 7 0;
#X connect 18 0 7 0;
#X connect 19 0 7 0;
#X connect 20 0 7 0;
#X connect 21 0 7 0;
#X connect 22 0 7 0;
#X connect 23 0 7 0;
#X connect 24 0 7 0;
#X connect 26 0 7 0;
#X connect 27 0 7 0;
#X connect 28 0 7 0;
#X connect 29 0 7 0;
#X connect 30 0 7 1;
#X connect 31 0 7 1;
#X connect 32 0 7 1;
#X connect 33 0 7 1;
#X connect 34 0 7 1;
#X connect 35 0 7 1;
#X connect 36 0 7 1;
#X connect 37 0 7 1;
#X connect 38 0 7 1;
#X connect 39 0 7 1;
#X connect 40 0 7 1;
#X connect 41 0 7 1;
#X connect 43 0 7 1;
#X connect 44 0 7 1;
#X connect 45 0 7 1;
#X connect 46 0 11 0;
#X connect 46 0 13 0;
#X connect 47 0 48 0;
#X connect 48 0 49 0;
#X connect 48 0 51 1;
#X connect 49 0 50 0;
#X connect 50 0 51 0;
#X connect 51 0 52 0;
#X connect 52 0 55 0;
#X connect 53 0 56 0;
#X connect 55 0 58 0;
#X connect 56 0 55 1;
#X connect 57 0 53 0;
#X connect 58 0 59 0;
#X connect 58 0 59 1;
#X connect 61 0 62 0;
#X connect 63 0 64 0;
#X connect 65 0 67 0;
#X connect 66 0 67 0;
#X connect 67 0 60 0;
#X connect 67 0 61 0;
#X connect 67 1 63 0;
#X connect 67 1 60 1;
